<svg xmlns="http://www.w3.org/2000/svg" viewBox="0 0 600 720" role="img" aria-label="Ảnh X-quang ngực mô phỏng"><rect width="600" height="720" fill="#071018"/><ellipse cx="300" cy="350" rx="225" ry="300" fill="#293844"/><path d="M290 92v500M310 92v500" stroke="#d8e2e8" stroke-width="12" opacity=".55"/><g fill="#101b24" stroke="#b8c6cf" stroke-width="5" opacity=".82"><ellipse cx="190" cy="350" rx="118" ry="245"/><ellipse cx="410" cy="350" rx="118" ry="245"/></g><g fill="none" stroke="#e2e9ed" stroke-width="8" opacity=".38"><path d="M105 185q195-105 390 0M86 235q214-110 428 0M76 290q224-110 448 0M73 350q227-105 454 0M80 412q220-90 440 0M98 472q202-75 404 0"/></g><path d="M300 340c-78-72-132 75-31 198l31 36 31-36c101-123 47-270-31-198z" fill="#dce5ea" opacity=".48"/><text x="28" y="45" fill="#f2f5f7" font-family="sans-serif" font-size="20">MOCK PACS • CHEST PA</text><text x="545" y="685" fill="#f2f5f7" font-family="sans-serif" font-size="34">R</text></svg>
